<?xml version="1.0" encoding="iso-8859-1"?>
<!-- Generator: Adobe Illustrator 19.0.0, SVG Export Plug-In . SVG Version: 6.00 Build 0)  -->
<svg version="1.1" id="Capa_1" xmlns="http://www.w3.org/2000/svg" xmlns:xlink="http://www.w3.org/1999/xlink" x="0px" y="0px"
	 viewBox="0 0 511.999 511.999" style="enable-background:new 0 0 511.999 511.999;" xml:space="preserve">
<path style="fill:#F07C3C;" d="M444.344,105.572c30.526,30.328,37.638,72.432,15.885,94.043
	c-21.752,21.612-64.128,14.543-94.654-15.783c-30.526-30.328-37.639-72.433-15.885-94.044
	C371.441,68.177,413.821,75.244,444.344,105.572z"/>
<g style="opacity:0.1;">
	<path d="M386.665,183.832c-30.526-30.328-37.639-72.433-15.885-94.044c6.19-6.151,14.055-9.971,22.839-11.601
		c-17.089-2.823-33.077,0.817-43.928,11.601c-21.754,21.612-14.64,63.716,15.885,94.044c21.837,21.696,49.736,31.48,71.814,27.384
		C420.23,208.381,401.96,199.027,386.665,183.832z"/>
</g>
<path style="fill:#D16605;" d="M167.465,384.041c30.345,30.51,37.414,72.868,15.792,94.607
	c-21.622,21.741-63.746,14.632-94.09-15.88c-30.343-30.509-37.414-72.866-15.792-94.606
	C94.994,346.422,137.124,353.532,167.465,384.041z"/>
<g style="opacity:0.1;">
	<path d="M110.133,452.243c-30.343-30.509-37.414-72.866-15.792-94.606c0.351-0.353,0.723-0.678,1.085-1.016
		c-8.47,1.706-16.052,5.509-22.052,11.543c-21.622,21.741-14.551,64.098,15.792,94.606c29.852,30.016,71.087,37.363,93.006,16.895
		C160.125,484.106,132.057,474.286,110.133,452.243z"/>
</g>
<path style="fill:#FF9300;" d="M160.654,327.064c-0.881,0-1.759-0.232-2.54-0.69c-14.227-8.344-27.912-25.854-37.544-48.04
	c-9.161-21.095-11.858-39.819-8.018-55.65c-4.669,1.118-9.654,1.685-14.819,1.685c-12.395,0-26.255-3.247-41.192-9.65
	c-22.283-9.549-39.891-23.118-48.307-37.224c-0.824-1.383-0.937-3.076-0.301-4.555c0.636-1.478,1.941-2.563,3.511-2.916
	c4.202-0.945,8.853-1.424,13.826-1.424c11.355,0,24.399,2.522,37.722,7.291c-2.881-3.481-5.622-7.011-8.145-10.493
	c-19.092-26.329-28-51.218-26.48-73.977c0.1-1.491,0.861-2.862,2.072-3.737c0.864-0.623,1.894-0.949,2.938-0.949
	c0.422,0,0.846,0.053,1.261,0.161c22.039,5.72,42.842,21.802,61.829,47.801c-0.08-2.652-0.12-5.041-0.12-7.305
	c0-44.211,10.806-88.119,26.887-109.261c0.949-1.248,2.428-1.981,3.996-1.981s3.046,0.732,3.996,1.981
	c16.084,21.138,26.889,65.048,26.889,109.261l-0.006,1.072c3.693-4.193,7.626-8.352,11.692-12.392
	c33.726-33.507,70.938-54.326,102.094-57.121c0.149-0.013,0.299-0.02,0.448-0.02c1.327,0,2.608,0.526,3.553,1.473
	c1.052,1.054,1.583,2.521,1.447,4.004c-2.826,30.947-23.78,67.904-57.488,101.395c-3.549,3.525-7.202,6.962-10.86,10.217
	c22.262,0.166,45.87,3.076,66.476,8.197c19.018,4.726,34.324,11.104,44.262,18.445c1.278,0.945,2.035,2.44,2.038,4.03
	c0.003,1.59-0.748,3.088-2.025,4.038c-23.513,17.495-74.496,26.648-112.704,26.648c-2.433,0-4.96-0.045-7.955-0.143l0.712,0.493
	c0.236,0.163,0.474,0.326,0.71,0.495c26.497,18.965,42.88,39.762,48.695,61.811c0.383,1.45,0.096,2.995-0.778,4.212
	c-0.876,1.217-2.248,1.979-3.746,2.079c-1.679,0.11-3.383,0.168-5.067,0.168c-21.512-0.001-44.864-8.908-69.408-26.473
	c-3.522-2.522-7.075-5.245-10.561-8.094c6.957,19.184,9.052,37.379,5.899,51.232c-0.355,1.561-1.433,2.859-2.902,3.494
	C162.009,326.928,161.33,327.064,160.654,327.064z"/>
<g style="opacity:0.1;">
	<path d="M141.074,257.751c-9.161-21.095-11.858-39.819-8.018-55.651c-4.669,1.118-9.654,1.685-14.819,1.685
		c-12.395,0-26.254-3.247-41.191-9.65c-15.413-6.605-28.583-15.133-38.027-24.432c-4.778-0.728-9.389-1.104-13.749-1.104
		c-4.972,0-9.625,0.479-13.826,1.424c-1.57,0.354-2.875,1.438-3.511,2.916c-0.636,1.479-0.524,3.172,0.301,4.555
		c8.416,14.108,26.023,27.676,48.307,37.224c14.937,6.403,28.797,9.65,41.192,9.65c5.165,0,10.149-0.566,14.819-1.685
		c-3.839,15.832-1.143,34.555,8.018,55.65c9.633,22.186,23.317,39.695,37.544,48.04c0.78,0.458,1.659,0.69,2.54,0.69
		c0.677,0,1.356-0.137,1.993-0.413c1.469-0.636,2.547-1.933,2.902-3.494c1.805-7.928,1.882-17.283,0.321-27.427
		C156.433,286.335,147.772,273.179,141.074,257.751z"/>
</g>
<path style="fill:#FFC554;" d="M466.163,441.592c-42.982,42.959-105.068,50.808-138.398,17.495
	c-17.125-17.115-24.108-42.884-19.157-70.697c0.142-0.776,13.541-74.74-10.668-109.097c-1.061-1.505-1.004-3.535,0.142-4.989
	c0.105-0.136,0.218-0.259,0.335-0.377c1.169-1.169,2.93-1.557,4.49-0.946c0.339,0.131,35.597,13.326,117.619,7.917
	c1.595-0.236,11.535-1.571,23.921-0.058c17.835,2.173,32.224,9.286,41.615,20.561c14.806,17.781,20.991,41.904,17.413,67.928
	C499.879,395.472,486.628,421.134,466.163,441.592z"/>
<g style="opacity:0.1;">
	<path d="M359.398,459.086c-17.125-17.115-24.108-42.884-19.157-70.697c0.142-0.776,13.541-74.74-10.668-109.097
		c-0.12-0.172-0.223-0.352-0.314-0.534c-17.85-2.593-26.188-5.714-26.352-5.777c-1.56-0.61-3.321-0.223-4.49,0.946
		c-0.117,0.116-0.229,0.24-0.335,0.377c-1.146,1.455-1.202,3.485-0.142,4.989c24.209,34.357,10.81,108.322,10.668,109.097
		c-4.951,27.813,2.032,53.581,19.157,70.697c17.523,17.514,42.994,23.645,69.459,19.283
		C382.805,475.77,369.721,469.404,359.398,459.086z"/>
</g>
<path d="M427.173,219.668c12.567,0,23.704-3.384,32.641-9.849l12.317,12.238c1.469,1.46,3.389,2.189,5.308,2.189
	c1.935,0,3.87-0.741,5.343-2.223c2.932-2.951,2.916-7.72-0.034-10.652l-12.257-12.177c6.482-8.88,9.874-19.943,9.874-32.423
	c0-22.559-11.481-47.435-30.712-66.541c-19.217-19.094-44.229-30.494-66.905-30.494c-15.414,0-28.681,5.086-38.365,14.709
	c-9.699,9.637-14.827,22.841-14.827,38.187c-0.001,22.56,11.48,47.436,30.712,66.544
	C379.486,208.269,404.499,219.668,427.173,219.668z M355,95.131c6.802-6.759,16.397-10.332,27.748-10.332
	c18.787,0,39.83,9.763,56.289,26.115c16.446,16.34,26.265,37.22,26.265,55.856c0,8.284-1.954,15.62-5.694,21.609l-12.447-12.365
	v-43.396c0-4.16-3.371-7.532-7.532-7.532c-4.161,0-7.532,3.372-7.532,7.532v28.43l-27.217-27.041V111.49
	c0-4.16-3.371-7.532-7.532-7.532c-4.16,0-7.532,3.372-7.532,7.532v7.55l-16.285-16.179c-2.95-2.931-7.719-2.916-10.651,0.034
	c-2.932,2.95-2.916,7.72,0.034,10.651l16.166,16.062h-7.55c-4.16,0.001-7.531,3.372-7.531,7.533s3.372,7.532,7.533,7.531
	l22.707-0.002l16.86,16.752h-29.887c-4.16,0-7.532,3.372-7.532,7.532c0,4.16,3.372,7.532,7.532,7.532h45.048l22.643,22.496
	c-6.028,3.694-13.406,5.624-21.732,5.624c-18.786,0-39.828-9.763-56.289-26.115c-16.447-16.341-26.266-37.222-26.265-55.858
	C344.62,111.387,348.209,101.877,355,95.131z"/>
<path d="M193.451,478.218c8.583-11.844,11.723-27.464,8.825-44.824c-3.238-19.397-13.703-38.81-29.472-54.665
	c-2.932-2.948-7.702-2.962-10.652-0.029c-2.948,2.933-2.962,7.703-0.028,10.652c24.718,24.854,32.889,57.967,20.51,77.989
	l-12.325-12.393v-43.699c0-4.16-3.371-7.532-7.532-7.532c-4.161,0-7.532,3.372-7.532,7.532v28.553l-26.964-27.111v-22.695
	c0-4.16-3.371-7.532-7.532-7.532c-4.161,0-7.532,3.372-7.532,7.532v7.548l-16.078-16.166c-2.932-2.949-7.701-2.962-10.652-0.029
	c-2.949,2.933-2.962,7.702-0.029,10.652l16.177,16.267h-7.55c-4.161,0-7.532,3.372-7.532,7.533c0,4.16,3.372,7.531,7.532,7.531
	l22.53-0.001l16.848,16.941h-29.752c-4.161,0-7.532,3.372-7.532,7.532c0,4.16,3.371,7.532,7.532,7.532h44.733l22.567,22.692
	c-5.992,3.736-13.33,5.688-21.616,5.688c-18.647,0-39.54-9.814-55.891-26.255c-27.382-27.532-34.465-65.207-15.791-83.984
	c12.082-12.148,33.022-13.753,54.652-4.188c3.803,1.683,8.252-0.037,9.935-3.841c1.682-3.804-0.037-8.252-3.842-9.934
	c-27.469-12.15-54.838-9.337-71.424,7.341c-12.215,12.282-17.073,30.24-13.681,50.566c3.239,19.396,13.704,38.809,29.472,54.662
	c19.116,19.221,44.002,30.697,66.571,30.697c12.486,0,23.553-3.39,32.438-9.871l12.188,12.256c1.472,1.48,3.406,2.22,5.341,2.22
	c1.92,0,3.841-0.73,5.311-2.191c2.948-2.933,2.962-7.702,0.029-10.651L193.451,478.218z"/>
<path d="M324.249,216.772c3.175-2.363,5.066-6.136,5.059-10.094c-0.007-3.957-1.911-7.723-5.095-10.075
	c-8.333-6.154-19.733-11.549-33.887-16.033c-3.962-1.257-8.199,0.94-9.454,4.906c-1.256,3.965,0.939,8.198,4.906,9.455
	c10.735,3.401,19.823,7.434,26.545,11.764c-18.236,11.569-59.6,23.151-105.274,23.151c-2.352,0-4.801-0.044-7.711-0.139
	c-3.312-0.083-6.349,1.994-7.396,5.167c-1.047,3.171,0.12,6.654,2.866,8.555l0.745,0.516c0.193,0.133,0.387,0.266,0.579,0.404
	c23.793,17.031,38.891,35.383,44.926,54.597c-0.481,0.01-0.96,0.015-1.439,0.015c-19.908-0.001-41.785-8.434-65.023-25.065
	c-3.39-2.427-6.815-5.051-10.179-7.802c-2.622-2.144-6.357-2.273-9.122-0.312c-2.765,1.96-3.879,5.525-2.725,8.712
	c5.872,16.189,8.062,31.431,6.3,43.426c-11.793-8.199-23.094-23.477-31.392-42.585c-8.099-18.652-10.789-35.079-8.032-48.881
	l0.316-0.314l59.849,38.01c1.251,0.795,2.649,1.175,4.031,1.175c2.492,0,4.93-1.235,6.365-3.495
	c2.23-3.512,1.192-8.165-2.321-10.396l-49.954-31.727l86.583-5.931c4.15-0.284,7.284-3.878,7-8.029c-0.284-4.15-3.865-7.298-8.029-7
	l-81.578,5.588l80.611-80.091c2.951-2.931,2.967-7.701,0.034-10.651c-2.931-2.95-7.701-2.967-10.651-0.034l-81.5,80.974l2.82-88.19
	c0.134-4.158-3.129-7.636-7.288-7.769c-4.147-0.17-7.635,3.129-7.768,7.287l-2.905,90.871l-27.108-42.71
	c-2.229-3.513-6.883-4.55-10.396-2.323c-3.512,2.229-4.551,6.883-2.323,10.395l33.884,53.386l-0.297,0.295
	c-13.894,2.744-30.581,0.051-49.312-7.979c-19.178-8.219-34.529-19.407-42.799-31.085c2.679-0.386,5.545-0.58,8.561-0.58
	c10.499,0,22.665,2.369,35.182,6.85c3.195,1.144,6.758,0.01,8.706-2.767c1.947-2.778,1.799-6.514-0.365-9.128
	c-2.777-3.354-5.418-6.756-7.85-10.112c-17.141-23.641-25.608-45.804-25.197-65.938c19.222,5.936,37.591,20.757,54.639,44.1
	c1.947,2.667,5.404,3.754,8.527,2.681c3.122-1.072,5.184-4.052,5.083-7.352c-0.077-2.578-0.115-4.893-0.115-7.076
	c0-40.787,9.3-81.013,23.353-101.905c14.055,20.886,23.355,61.11,23.355,101.864l-0.006,1.072c-0.017,3.14,1.916,5.962,4.851,7.08
	c2.938,1.119,6.256,0.296,8.332-2.061c3.519-3.996,7.337-8.042,11.349-12.027c31.381-31.178,65.583-50.929,94.392-54.628
	c-3.742,28.594-23.61,62.529-54.954,93.671c-3.454,3.429-7.007,6.774-10.56,9.936c-2.328,2.072-3.139,5.363-2.042,8.279
	s3.877,4.855,6.994,4.879c13.577,0.1,28.034,1.278,41.805,3.407c4.107,0.632,7.958-2.182,8.594-6.294
	c0.636-4.11-2.182-7.959-6.294-8.594c-8.503-1.315-17.259-2.284-25.931-2.882c33.801-34.208,54.8-72.029,57.729-104.097
	c0.339-3.719-0.979-7.367-3.617-10.009c-2.599-2.604-6.26-3.964-10.005-3.635c-32.682,2.931-71.319,24.303-106.11,58.667
	c-2.44-39.633-13.037-77.019-27.894-96.545c-2.36-3.1-6.094-4.951-9.989-4.951c-3.897,0-7.633,1.853-9.991,4.953
	C101.928,33.703,91.14,72.814,89.15,113.802C72.76,95.904,55.121,84.428,36.532,79.603c-1.028-0.267-2.09-0.402-3.153-0.402
	c-2.651,0-5.19,0.819-7.347,2.375c-3.04,2.195-4.927,5.6-5.178,9.341c-1.503,22.517,6.257,46.697,23.082,71.978
	c-12.624-2.344-24.358-2.422-34.142-0.22c-3.913,0.88-7.194,3.605-8.778,7.291c-1.584,3.686-1.302,7.943,0.752,11.387
	c9.212,15.442,28.095,30.127,51.808,40.289c13.94,5.975,27.09,9.364,39.174,10.103l-30.228,30.033
	c-2.951,2.932-2.967,7.701-0.034,10.652c1.472,1.482,3.407,2.223,5.343,2.223c1.919,0,3.839-0.729,5.308-2.189l30.352-30.156
	c0.734,12.051,4.123,25.101,10.171,39.028c10.254,23.617,25.068,42.402,40.643,51.536c1.924,1.129,4.12,1.725,6.351,1.725
	c1.724,0,3.4-0.347,4.984-1.031c3.659-1.583,6.372-4.849,7.256-8.736c2.232-9.807,2.123-21.456-0.22-33.982
	c23.388,15.385,45.879,23.177,66.946,23.178c1.847,0,3.718-0.062,5.564-0.184c3.752-0.248,7.165-2.142,9.365-5.199
	c2.195-3.055,2.904-6.892,1.945-10.527c-4.999-18.956-17.035-36.91-35.866-53.548c16.582-0.82,33.877-3.091,49.894-6.594
	C286.825,234.405,309.382,227.832,324.249,216.772z"/>
<path d="M491.848,296.579c-10.645-12.779-26.721-20.807-46.489-23.216c-12.647-1.545-22.97-0.333-25.618,0.038
	c-41.156,2.695-69.932,0.545-86.838-1.737c-18.514-2.5-27.253-5.697-27.255-5.697c-4.331-1.696-9.264-0.662-12.537,2.613
	c-0.349,0.346-0.676,0.714-0.949,1.064c-3.181,4.041-3.337,9.793-0.381,13.987c8.986,12.753,13.513,34.431,13.091,62.692
	c-0.329,22.102-3.54,39.97-3.682,40.748c-5.388,30.273,2.357,58.463,21.248,77.344c14.967,14.96,35.793,22.824,58.763,22.824
	c9.847,0,20.088-1.445,30.428-4.397c4-1.141,6.318-5.309,5.176-9.309s-5.31-6.316-9.309-5.176
	c-29.134,8.313-56.949,2.855-74.41-14.597c-15.359-15.351-21.579-38.695-17.071-64.021c0.146-0.799,3.57-19.858,3.918-43.192
	c0.405-27.142-3.388-48.62-11.291-64.03c15.02,3.76,50.655,9.967,112.375,5.897c0.204-0.014,0.407-0.035,0.609-0.065
	c1.025-0.152,10.352-1.443,21.905-0.032c15.891,1.936,28.596,8.127,36.738,17.904c13.436,16.134,19.025,38.182,15.74,62.082
	c-2.993,21.769-13.187,43.224-28.94,61.273l-22.194-22.182c-0.016-0.017-0.033-0.033-0.049-0.049l-14.505-14.498
	c13.132-22.838,9.932-43.411,9.776-44.34c-0.683-4.103-4.563-6.875-8.667-6.193c-4.103,0.683-6.876,4.563-6.193,8.667
	c0.027,0.161,2.19,14.091-6.041,30.748l-23.948-23.936c10.799-19.276,3.751-40.335,3.445-41.226
	c-1.351-3.921-5.612-5.995-9.536-4.663c-3.927,1.333-6.031,5.605-4.716,9.537c0.047,0.141,4.169,12.814-0.496,25.051l-26.634-26.621
	c-2.941-2.941-7.711-2.94-10.651,0.003c-2.94,2.941-2.939,7.711,0.003,10.651l44.699,44.677
	c-15.151,4.132-29.529-0.527-29.828-0.627c-3.933-1.342-8.202,0.752-9.552,4.678c-1.354,3.934,0.737,8.22,4.671,9.573
	c0.635,0.218,9.464,3.176,21.399,3.176c7.554,0,16.355-1.196,25.103-5.013l12.182,12.175c0.006,0.006,0.012,0.012,0.018,0.018
	l11.872,11.867c-27.643,14.025-53.382,8.714-53.696,8.646c-4.052-0.892-8.065,1.658-8.973,5.71
	c-0.908,4.059,1.647,8.086,5.706,8.995c0.607,0.136,6.783,1.46,16.301,1.46c12.951,0,32.087-2.459,51.788-13.69l18.202,18.189
	c-4.765,4.363-9.812,8.364-15.066,11.926c-3.443,2.335-4.34,7.019-2.005,10.461c2.334,3.443,7.017,4.34,10.461,2.006
	c6.037-4.094,11.822-8.706,17.269-13.738l12.003,11.997c1.47,1.47,3.397,2.204,5.324,2.204c1.928,0,3.856-0.736,5.327-2.207
	c2.94-2.941,2.939-7.711-0.003-10.651l-12.11-12.104c18.056-20.406,29.746-44.922,33.18-69.899
	C514.806,342.207,508.028,316.008,491.848,296.579z"/>
<g>
</g>
<g>
</g>
<g>
</g>
<g>
</g>
<g>
</g>
<g>
</g>
<g>
</g>
<g>
</g>
<g>
</g>
<g>
</g>
<g>
</g>
<g>
</g>
<g>
</g>
<g>
</g>
<g>
</g>
</svg>
