<svg height="512" viewBox="0 0 128 128" width="512" xmlns="http://www.w3.org/2000/svg"><g><g><path d="m61.473 51.629h5.009v50.565h-5.009z" fill="#8dd95c"/><path d="m55.884 79.087c4.812 2.787 5.589 10.44 5.589 10.44s-7.025 3.134-11.837.346-8.318-12.021-8.318-12.021 9.754-1.552 14.566 1.235z" fill="#c4e83b"/><path d="m74.542 95.748c-3.821 1.018-8.06-2.439-8.06-2.439s1.956-5.108 5.778-6.126 10.227 1.862 10.227 1.862-4.124 5.685-7.945 6.703z" fill="#c4e83b"/><g fill="#fd652c"><path d="m72.2 34.046c0 4.54-8.221 16.95-8.221 16.95s-8.221-12.41-8.221-16.95a8.221 8.221 0 1 1 16.442 0z"/><path d="m80.928 59.217c-4.54 0-16.951-8.217-16.951-8.217s12.411-8.22 16.951-8.22a8.221 8.221 0 1 1 0 16.441z"/><path d="m55.756 67.947c0-4.54 8.221-16.951 8.221-16.951s8.223 12.411 8.223 16.951a8.221 8.221 0 0 1 -16.442 0z"/><path d="m47.026 42.776c4.541 0 16.951 8.22 16.951 8.22s-12.41 8.221-16.951 8.221a8.221 8.221 0 0 1 0-16.441z"/></g><path d="m81.776 44.823c-3.21 3.211-17.799 6.177-17.799 6.177s2.963-14.592 6.173-17.8a8.221 8.221 0 0 1 11.626 11.623z" fill="#fd9126"/><path d="m70.15 68.8c-3.21-3.215-6.173-17.8-6.173-17.8s14.589 2.963 17.8 6.173a8.221 8.221 0 0 1 -11.627 11.627z" fill="#fd9126"/><path d="m46.178 57.169c3.211-3.21 17.8-6.173 17.8-6.173s-2.963 14.589-6.178 17.804a8.221 8.221 0 0 1 -11.622-11.631z" fill="#fd9126"/><path d="m57.8 33.2c3.215 3.208 6.177 17.8 6.177 17.8s-14.588-2.962-17.8-6.173a8.221 8.221 0 0 1 11.623-11.627z" fill="#fd9126"/><circle cx="63.977" cy="51.629" fill="#fecec1" r="6.728"/></g><g fill="#4e1b00"><path d="m75.7 93.317c-.13.08-.26.158-.391.23a1.75 1.75 0 1 0 1.685 3.067c.184-.1.365-.208.548-.321a1.75 1.75 0 0 0 -1.842-2.976z"/><path d="m85.354 42.4a9.959 9.959 0 0 0 -12.468-12.872 9.959 9.959 0 0 0 -17.775.005 9.932 9.932 0 0 0 -2.022-.445 1.75 1.75 0 1 0 -.375 3.479 6.41 6.41 0 0 1 3.876 1.858c.532.534 1.93 2.508 3.885 9.494a8.526 8.526 0 0 0 -3.81 3.469c-6.783-1.92-8.7-3.291-9.227-3.812a6.473 6.473 0 0 1 -1.777-5.813 1.749 1.749 0 1 0 -3.435-.664 9.956 9.956 0 0 0 .429 5.293 9.965 9.965 0 0 0 -.344 18.313 10.065 10.065 0 0 0 -.268 2.268 9.973 9.973 0 0 0 9.971 9.971 10.035 10.035 0 0 0 2.608-.353 9.986 9.986 0 0 0 5.123 5.618v2.012a10.306 10.306 0 0 0 -2.961-2.658c-5.29-3.064-15.3-1.517-15.719-1.448a1.749 1.749 0 0 0 -1.36 2.349c.152.4 3.787 9.85 9.076 12.914a11.15 11.15 0 0 0 5.672 1.392 16.9 16.9 0 0 0 1.795-.1 1.75 1.75 0 1 0 -.375-3.48 8.7 8.7 0 0 1 -5.338-.84c-2.735-1.585-5.256-6.029-6.663-9.041 3.313-.278 8.422-.3 11.158 1.282 3.762 2.18 4.629 8.343 4.715 9.031v12.563a1.75 1.75 0 0 0 3.5 0v-23.042c.25.019.5.031.755.031s.5-.012.755-.031v23.042a1.75 1.75 0 0 0 3.5 0v-5.757a13.317 13.317 0 0 0 2.123.838 1.75 1.75 0 1 0 .982-3.359 11.316 11.316 0 0 1 -2.631-1.2c.73-1.331 2.113-3.34 4-3.844 1.845-.492 4.76.218 6.9.937-.2.226-.417.464-.648.707a1.75 1.75 0 0 0 2.543 2.406 31.885 31.885 0 0 0 2.4-2.85 1.751 1.751 0 0 0 -.7-2.625c-.715-.32-7.1-3.1-11.4-1.957a8.345 8.345 0 0 0 -3.577 2.1v-9.372a9.991 9.991 0 0 0 5.124-5.618 10.021 10.021 0 0 0 2.607.353 9.97 9.97 0 0 0 7.05-17.021c-.581-.581-2.3-2.292-10.576-4.654-.008-.185-.013-.372-.032-.554 8.307-2.367 10.024-4.079 10.608-4.664.185-.185.356-.381.524-.577a6.455 6.455 0 0 1 3.357 9.81 1.751 1.751 0 0 0 2.891 1.987 9.965 9.965 0 0 0 -4.446-14.871zm-16.376 9.22a4.978 4.978 0 1 1 -4.978-4.978 4.984 4.984 0 0 1 4.978 4.978zm-21.54 15.929a6.473 6.473 0 0 1 0-9.152c.406-.4 1.592-1.265 4.991-2.475a1.75 1.75 0 0 0 -1.174-3.3c-3.128 1.114-5.186 2.192-6.291 3.3a10.048 10.048 0 0 0 -1.278 1.566 6.461 6.461 0 0 1 .764-12.018c.168.2.33.4.514.581.585.585 2.3 2.3 10.608 4.664a8.713 8.713 0 0 0 -.05.9 8.479 8.479 0 0 0 4.634 7.546c-1.8 6.113-3.077 7.894-3.566 8.383a6.473 6.473 0 0 1 -9.152 0zm16.562 8.125a6.479 6.479 0 0 1 -6.186-4.6 9.924 9.924 0 0 0 1.25-1.049c.562-.56 2.2-2.207 4.474-9.949.154.009.306.024.462.024s.308-.015.462-.024c2.271 7.742 3.912 9.389 4.474 9.949a10.018 10.018 0 0 0 1.25 1.05 6.478 6.478 0 0 1 -6.186 4.599zm18.457-12.7a6.471 6.471 0 0 1 -11.047 4.575c-.489-.489-1.768-2.27-3.566-8.383a8.513 8.513 0 0 0 4.03-4.424c6.345 1.84 8.185 3.153 8.688 3.655a6.432 6.432 0 0 1 1.895 4.576zm-11.122-15.586a8.475 8.475 0 0 0 -7.335-4.246c-.036 0-.072 0-.108.006-2.449-8.806-4.224-10.594-4.828-11.2a9.752 9.752 0 0 0 -.867-.761 6.457 6.457 0 0 1 11.6 0 10.034 10.034 0 0 0 -.865.764c-1.184 1.183-2.343 3.473-3.545 7a1.75 1.75 0 0 0 3.313 1.13c1.326-3.892 2.266-5.214 2.707-5.656a6.511 6.511 0 0 1 1.311-1l.013-.008a6.469 6.469 0 0 1 7.828 10.165c-.519.518-2.441 1.886-9.224 3.806z"/><path d="m46.973 34.257a1.739 1.739 0 0 0 1.074-.369 6.457 6.457 0 0 1 .546-.382 1.75 1.75 0 0 0 -1.856-2.967q-.432.27-.841.587a1.75 1.75 0 0 0 1.077 3.131z"/></g></g></svg>