<svg height="512" viewBox="0 0 512 512" width="512" xmlns="http://www.w3.org/2000/svg"><g id="Snowflake-2" data-name="Snowflake"><g id="Filled"><path d="m120 120h-48l-16-64 64 16z" fill="#b2ebf2"/><path d="m392 120h48l16-64-64 16z" fill="#b2ebf2"/><path d="m120 392h-48l-16 64 64-16z" fill="#b2ebf2"/><path d="m392 392h48l16 64-64-16z" fill="#b2ebf2"/><g fill="#e0f7fa"><path d="m280 312-24-32-24 32v88l24 32 24-32z"/><path d="m312 232-32 24 32 24h88l32-24-32-24z"/><path d="m280 200-24 32-24-32v-88l24-32 24 32z"/><path d="m200 232 32 24-32 24h-88l-32-24 32-24z"/><circle cx="76" cy="76" r="12"/><circle cx="412" cy="76" r="12"/><circle cx="84" cy="404" r="12"/><circle cx="404" cy="404" r="12"/></g><circle cx="108" cy="252" fill="#fff" r="12"/><circle cx="252" cy="316" fill="#fff" r="12"/><circle cx="316" cy="252" fill="#fff" r="12"/><circle cx="252" cy="116" fill="#fff" r="12"/><path d="m72 120h48v-48l-7.311-1.828a91.771 91.771 0 0 1 -44.364 35.128z" fill="#80deea"/><path d="m449.327 82.691a91.023 91.023 0 0 1 -45.827 12.309 91.874 91.874 0 0 1 -11.5-.728v25.728h48z" fill="#80deea"/><path d="m280 200v-52.684a91.585 91.585 0 0 1 -48 32.359v20.325l24 32z" fill="#b2ebf2"/><path d="m280 400v-56.8a91.692 91.692 0 0 1 -48 35.592v21.208l24 32z" fill="#b2ebf2"/><path d="m400 280 32-24-32-24h-21.213a91.7 91.7 0 0 1 -35.587 48z" fill="#b2ebf2"/><path d="m200 280 32-24-32-24h-35.091a91.38 91.38 0 0 1 -27.653 48z" fill="#b2ebf2"/><path d="m444.723 410.891a91.063 91.063 0 0 1 -52.723 20v9.109l64 16z" fill="#80deea"/><path d="m120 416.111a91.039 91.039 0 0 1 -51.5 15.889c-2.167 0-4.312-.089-6.44-.238l-6.06 24.238 64-16z" fill="#80deea"/></g><g id="Outline"><circle cx="256" cy="8" r="8"/><circle cx="256" cy="504" r="8"/><path d="m77.334 264 22.487 16.865-17.978 17.978a8 8 0 0 0 11.314 11.314l22.157-22.157h33.372l-26.343 26.343a8 8 0 0 0 11.314 11.314l37.657-37.657h28.686a8 8 0 0 0 4.8-1.6l32-24a8 8 0 0 0 0-12.8l-32-24a8 8 0 0 0 -4.8-1.6h-28.686l-37.657-37.657a8 8 0 1 0 -11.314 11.314l26.343 26.343h-33.372l-22.157-22.157a8 8 0 0 0 -11.314 11.314l17.978 17.978-22.487 16.865h-17.52l-22.157-22.157a8 8 0 0 0 -11.314 11.314l18.844 18.843-18.844 18.843a8 8 0 0 0 11.314 11.314l22.157-22.157zm37.333-24h82.666l21.334 16-21.334 16h-82.666l-21.334-16z"/><circle cx="8" cy="256" r="8"/><path d="m224 179.314v20.686a8 8 0 0 0 1.6 4.8l24 32a8 8 0 0 0 12.8 0l24-32a8 8 0 0 0 1.6-4.8v-20.686l37.657-37.657a8 8 0 0 0 -11.314-11.314l-26.343 26.343v-41.372l22.157-22.157a8 8 0 0 0 -11.314-11.314l-17.977 17.977-16.866-22.487v-17.519l22.157-22.157a8 8 0 0 0 -11.314-11.314l-18.843 18.844-18.843-18.844a8 8 0 0 0 -11.314 11.314l22.157 22.157v17.519l-16.866 22.487-17.977-17.977a8 8 0 0 0 -11.314 11.314l22.157 22.157v41.372l-26.343-26.343a8 8 0 0 0 -11.314 11.314zm16-3.309v-61.338l16-21.334 16 21.334v82.666l-16 21.334-16-21.334z"/><path d="m288 332.686v-20.686a8 8 0 0 0 -1.6-4.8l-24-32a8 8 0 0 0 -12.8 0l-24 32a8 8 0 0 0 -1.6 4.8v20.686l-37.657 37.657a8 8 0 0 0 11.314 11.314l26.343-26.343v41.372l-22.157 22.157a8 8 0 0 0 11.314 11.314l17.977-17.977 16.866 22.487v17.519l-22.157 22.157a8 8 0 0 0 11.314 11.314l18.843-18.844 18.843 18.844a8 8 0 0 0 11.314-11.314l-22.157-22.157v-17.519l16.866-22.487 17.977 17.977a8 8 0 0 0 11.314-11.314l-22.157-22.157v-41.372l26.343 26.343a8 8 0 0 0 11.314-11.314zm-16 3.314v61.338l-16 21.334-16-21.334v-82.671l16-21.334 16 21.334z"/><path d="m485.657 225.843a8 8 0 0 0 -11.314 0l-22.157 22.157h-17.52l-22.487-16.865 17.978-17.978a8 8 0 0 0 -11.314-11.314l-22.157 22.157h-41.372l26.343-26.343a8 8 0 0 0 -11.314-11.314l-37.657 37.657h-20.686a8 8 0 0 0 -4.8 1.6l-32 24a8 8 0 0 0 0 12.8l32 24a8 8 0 0 0 4.8 1.6h20.686l37.657 37.657a8 8 0 0 0 11.314-11.314l-26.343-26.343h41.372l22.157 22.157a8 8 0 0 0 11.314-11.314l-17.978-17.978 22.487-16.865h17.52l22.157 22.157a8 8 0 0 0 11.314-11.314l-18.844-18.843 18.844-18.843a8 8 0 0 0 0-11.314zm-88.324 46.157h-82.666l-21.334-16 21.334-16h82.666l21.334 16z"/><circle cx="504" cy="256" r="8"/><circle cx="312" cy="200" r="8"/><circle cx="200" cy="200" r="8"/><circle cx="312" cy="312" r="8"/><circle cx="200" cy="312" r="8"/><path d="m64.239 121.94a8 8 0 0 0 7.761 6.06h44.686l16 16h-28.686a8 8 0 0 0 0 16h44.686l21.657 21.657a8 8 0 0 0 11.314-11.314l-21.657-21.657v-44.686a8 8 0 0 0 -16 0v28.686l-16-16v-44.686a8 8 0 0 0 -6.06-7.761l-64-16a8 8 0 0 0 -9.7 9.7zm47.761-43.694v33.754h-33.754l-11.246-45z"/><path d="m330.343 181.657a8 8 0 0 0 11.314 0l21.657-21.657h44.686a8 8 0 0 0 0-16h-28.686l16-16h44.686a8 8 0 0 0 7.761-6.06l16-64a8 8 0 0 0 -9.7-9.7l-64 16a8 8 0 0 0 -6.061 7.76v44.686l-16 16v-28.686a8 8 0 0 0 -16 0v44.686l-21.657 21.657a8 8 0 0 0 0 11.314zm69.657-103.411 45.005-11.246-11.251 45h-33.754z"/><path d="m181.657 330.343a8 8 0 0 0 -11.314 0l-21.657 21.657h-44.686a8 8 0 0 0 0 16h28.686l-16 16h-44.686a8 8 0 0 0 -7.761 6.06l-16 64a8 8 0 0 0 9.7 9.7l64-16a8 8 0 0 0 6.061-7.76v-44.686l16-16v28.686a8 8 0 0 0 16 0v-44.686l21.657-21.657a8 8 0 0 0 0-11.314zm-69.657 103.411-45 11.251 11.251-45h33.749z"/><path d="m447.761 390.06a8 8 0 0 0 -7.761-6.06h-44.686l-16-16h28.686a8 8 0 0 0 0-16h-44.686l-21.657-21.657a8 8 0 0 0 -11.314 11.314l21.657 21.657v44.686a8 8 0 0 0 16 0v-28.686l16 16v44.686a8 8 0 0 0 6.06 7.761l64 16a8 8 0 0 0 9.7-9.7zm-47.761 43.694v-33.754h33.754l11.251 45.005z"/></g></g></svg>